<?xml version="1.0" encoding="UTF-8" standalone="no"?>
<!DOCTYPE svg PUBLIC "-//W3C//DTD SVG 1.1//EN" "http://www.w3.org/Graphics/SVG/1.1/DTD/svg11.dtd">
<svg xmlns="http://www.w3.org/2000/svg" version="1.1" viewBox="0 0 500 500">
<g stroke-width="2.00" fill="none" stroke-linecap="butt">
<path stroke="#145575" vector-effect="non-scaling-stroke" d="
  M 157.71 164.75
  Q 155.16 165.70 153.87 168.08"
/>
<path stroke="#012848" vector-effect="non-scaling-stroke" d="
  M 153.87 168.08
  Q 135.24 206.71 116.86 245.47
  Q 112.29 255.10 111.74 259.00
  C 110.69 266.28 113.79 275.17 118.97 280.52
  Q 124.45 286.18 151.19 313.06
  Q 153.10 314.99 156.21 317.25"
/>
<path stroke="#145575" vector-effect="non-scaling-stroke" d="
  M 156.21 317.25
  Q 163.13 325.43 170.96 332.75"
/>
<path stroke="#1e5b79" vector-effect="non-scaling-stroke" d="
  M 170.96 332.75
  L 214.61 376.46
  A 1.04 1.01 66.5 0 0 215.32 376.75
  L 319.21 376.75
  A 1.00 1.00 0.0 0 0 320.21 375.75
  L 320.25 331.54"
/>
<path stroke="#012848" vector-effect="non-scaling-stroke" d="
  M 320.25 331.54
  L 364.26 331.60
  A 1.00 0.99 -89.7 0 0 365.26 330.60
  L 365.25 228.36
  A 0.99 0.98 -68.2 0 0 364.95 227.65
  L 308.25 170.96"
/>
<path stroke="#1e5b79" vector-effect="non-scaling-stroke" d="
  M 308.25 170.96
  Q 288.92 151.42 269.40 132.12
  C 257.57 120.43 245.68 120.74 231.81 127.67
  Q 194.74 146.19 157.71 164.75"
/>
<path stroke="#1f83c1" vector-effect="non-scaling-stroke" d="
  M 308.25 170.96
  C 295.82 164.66 281.24 166.18 267.45 166.27
  A 0.30 0.28 -70.1 0 0 267.22 166.39
  L 267.06 166.58
  A 0.44 0.41 -68.5 0 1 266.74 166.73
  L 223.77 166.57"
/>
<path stroke="#3797cf" vector-effect="non-scaling-stroke" d="
  M 223.77 166.57
  Q 192.02 165.40 160.29 166.25"
/>
<path stroke="#32b0ee" vector-effect="non-scaling-stroke" d="
  M 160.29 166.25
  L 157.71 164.75"
/>
<path stroke="#1a649e" vector-effect="non-scaling-stroke" d="
  M 223.77 166.57
  Q 210.68 167.46 186.75 167.69
  Q 168.74 167.87 156.65 166.72"
/>
<path stroke="#2d91cb" vector-effect="non-scaling-stroke" d="
  M 160.29 166.25
  L 156.65 166.72"
/>
<path stroke="#157dbd" vector-effect="non-scaling-stroke" d="
  M 156.65 166.72
  Q 157.22 169.37 159.40 171.19
  Q 161.95 173.33 162.04 173.42
  Q 240.13 251.50 318.22 329.59
  A 0.32 0.20 -70.1 0 1 318.27 329.82
  L 318.25 329.96"
/>
<path stroke="#32b0ee" vector-effect="non-scaling-stroke" d="
  M 318.25 329.96
  Q 316.15 331.64 314.76 331.68
  C 297.86 332.15 275.22 331.49 255.50 331.52
  Q 213.73 331.59 171.95 331.78
  C 171.20 331.78 171.16 332.10 170.96 332.75"
/>
<path stroke="#157dbd" vector-effect="non-scaling-stroke" d="
  M 156.21 317.25
  L 156.29 315.75"
/>
<path stroke="#37b0ec" vector-effect="non-scaling-stroke" d="
  M 156.29 315.75
  Q 156.99 316.24 157.57 315.84
  A 0.80 0.80 0.0 0 0 157.90 315.03
  Q 156.63 308.27 156.57 303.25
  Q 156.00 248.91 156.60 176.16
  A 1.04 1.03 20.1 0 0 156.23 175.37
  Q 155.47 174.76 154.79 175.50"
/>
<path stroke="#157dbd" vector-effect="non-scaling-stroke" d="
  M 154.79 175.50
  Q 155.16 171.96 153.87 168.08"
/>
<path stroke="#1f83c1" vector-effect="non-scaling-stroke" d="
  M 320.25 331.54
  L 318.25 329.96"
/>
<path stroke="#2484be" vector-effect="non-scaling-stroke" d="
  M 154.79 175.50
  Q 154.80 241.22 154.81 306.94
  Q 154.81 310.58 156.29 315.75"
/>
</g>
<path fill="#000000" d="
  M 454.97 249.69
  A 204.83 204.83 0.0 0 1 250.14 454.52
  A 204.83 204.83 0.0 0 1 45.31 249.69
  A 204.83 204.83 0.0 0 1 250.14 44.86
  A 204.83 204.83 0.0 0 1 454.97 249.69
  Z
  M 157.71 164.75
  Q 155.16 165.70 153.87 168.08
  Q 135.24 206.71 116.86 245.47
  Q 112.29 255.10 111.74 259.00
  C 110.69 266.28 113.79 275.17 118.97 280.52
  Q 124.45 286.18 151.19 313.06
  Q 153.10 314.99 156.21 317.25
  Q 163.13 325.43 170.96 332.75
  L 214.61 376.46
  A 1.04 1.01 66.5 0 0 215.32 376.75
  L 319.21 376.75
  A 1.00 1.00 0.0 0 0 320.21 375.75
  L 320.25 331.54
  L 364.26 331.60
  A 1.00 0.99 -89.7 0 0 365.26 330.60
  L 365.25 228.36
  A 0.99 0.98 -68.2 0 0 364.95 227.65
  L 308.25 170.96
  Q 288.92 151.42 269.40 132.12
  C 257.57 120.43 245.68 120.74 231.81 127.67
  Q 194.74 146.19 157.71 164.75
  Z"
/>
<path fill="#3bb6f2" d="
  M 308.25 170.96
  C 295.82 164.66 281.24 166.18 267.45 166.27
  A 0.30 0.28 -70.1 0 0 267.22 166.39
  L 267.06 166.58
  A 0.44 0.41 -68.5 0 1 266.74 166.73
  L 223.77 166.57
  Q 192.02 165.40 160.29 166.25
  L 157.71 164.75
  Q 194.74 146.19 231.81 127.67
  C 245.68 120.74 257.57 120.43 269.40 132.12
  Q 288.92 151.42 308.25 170.96
  Z"
/>
<path fill="#28a9ea" d="
  M 157.71 164.75
  L 160.29 166.25
  L 156.65 166.72
  Q 157.22 169.37 159.40 171.19
  Q 161.95 173.33 162.04 173.42
  Q 240.13 251.50 318.22 329.59
  A 0.32 0.20 -70.1 0 1 318.27 329.82
  L 318.25 329.96
  Q 316.15 331.64 314.76 331.68
  C 297.86 332.15 275.22 331.49 255.50 331.52
  Q 213.73 331.59 171.95 331.78
  C 171.20 331.78 171.16 332.10 170.96 332.75
  Q 163.13 325.43 156.21 317.25
  L 156.29 315.75
  Q 156.99 316.24 157.57 315.84
  A 0.80 0.80 0.0 0 0 157.90 315.03
  Q 156.63 308.27 156.57 303.25
  Q 156.00 248.91 156.60 176.16
  A 1.04 1.03 20.1 0 0 156.23 175.37
  Q 155.47 174.76 154.79 175.50
  Q 155.16 171.96 153.87 168.08
  Q 155.16 165.70 157.71 164.75
  Z"
/>
<path fill="#3278ac" d="
  M 223.77 166.57
  Q 210.68 167.46 186.75 167.69
  Q 168.74 167.87 156.65 166.72
  L 160.29 166.25
  Q 192.02 165.40 223.77 166.57
  Z"
/>
<path fill="#02508f" d="
  M 308.25 170.96
  L 364.95 227.65
  A 0.99 0.98 -68.2 0 1 365.25 228.36
  L 365.26 330.60
  A 1.00 0.99 -89.7 0 1 364.26 331.60
  L 320.25 331.54
  L 318.25 329.96
  L 318.27 329.82
  A 0.32 0.20 -70.1 0 0 318.22 329.59
  Q 240.13 251.50 162.04 173.42
  Q 161.95 173.33 159.40 171.19
  Q 157.22 169.37 156.65 166.72
  Q 168.74 167.87 186.75 167.69
  Q 210.68 167.46 223.77 166.57
  L 266.74 166.73
  A 0.44 0.41 -68.5 0 0 267.06 166.58
  L 267.22 166.39
  A 0.30 0.28 -70.1 0 1 267.45 166.27
  C 281.24 166.18 295.82 164.66 308.25 170.96
  Z"
/>
<path fill="#02508f" d="
  M 153.87 168.08
  Q 155.16 171.96 154.79 175.50
  Q 154.80 241.22 154.81 306.94
  Q 154.81 310.58 156.29 315.75
  L 156.21 317.25
  Q 153.10 314.99 151.19 313.06
  Q 124.45 286.18 118.97 280.52
  C 113.79 275.17 110.69 266.28 111.74 259.00
  Q 112.29 255.10 116.86 245.47
  Q 135.24 206.71 153.87 168.08
  Z"
/>
<path fill="#45b7ed" d="
  M 156.29 315.75
  Q 154.81 310.58 154.81 306.94
  Q 154.80 241.22 154.79 175.50
  Q 155.47 174.76 156.23 175.37
  A 1.04 1.03 20.1 0 1 156.60 176.16
  Q 156.00 248.91 156.57 303.25
  Q 156.63 308.27 157.90 315.03
  A 0.80 0.80 0.0 0 1 157.57 315.84
  Q 156.99 316.24 156.29 315.75
  Z"
/>
<path fill="#3bb6f2" d="
  M 318.25 329.96
  L 320.25 331.54
  L 320.21 375.75
  A 1.00 1.00 0.0 0 1 319.21 376.75
  L 215.32 376.75
  A 1.04 1.01 66.5 0 1 214.61 376.46
  L 170.96 332.75
  C 171.16 332.10 171.20 331.78 171.95 331.78
  Q 213.73 331.59 255.50 331.52
  C 275.22 331.49 297.86 332.15 314.76 331.68
  Q 316.15 331.64 318.25 329.96
  Z"
/>
</svg>
